<?xml version="1.0" standalone="no"?>
<!DOCTYPE svg PUBLIC "-//W3C//DTD SVG 20010904//EN"
 "http://www.w3.org/TR/2001/REC-SVG-20010904/DTD/svg10.dtd">
<svg version="1.0" xmlns="http://www.w3.org/2000/svg"
 width="1137.000000pt" height="1137.000000pt" viewBox="0 0 1137.000000 1137.000000"
 preserveAspectRatio="xMidYMid meet">
<metadata>
Created by potrace 1.11, written by Peter Selinger 2001-2013
</metadata>
<g transform="translate(0.000000,1137.000000) scale(0.100000,-0.100000)"
fill="#000000" stroke="none">
<path d="M7042 9870 c-19 -12 -39 -25 -45 -31 -10 -8 -45 -35 -157 -120 -14
-10 -91 -68 -171 -127 -159 -118 -172 -129 -197 -154 -9 -10 -20 -18 -25 -18
-5 0 -15 -6 -22 -12 -22 -20 -38 -32 -70 -52 -16 -11 -34 -23 -40 -28 -5 -4
-28 -22 -50 -39 -22 -16 -47 -35 -55 -42 -8 -7 -29 -21 -45 -31 -17 -11 -34
-25 -38 -33 -4 -7 -15 -13 -22 -13 -8 0 -15 -3 -15 -7 0 -5 -20 -21 -45 -38
-24 -16 -45 -33 -45 -37 0 -5 -5 -8 -11 -8 -6 0 -16 -6 -24 -12 -7 -7 -25 -22
-41 -33 -15 -11 -33 -26 -40 -32 -7 -7 -17 -13 -22 -13 -6 0 -12 -4 -14 -8 -1
-5 -34 -32 -73 -61 -38 -30 -72 -57 -73 -62 -2 -5 -8 -7 -13 -3 -5 3 -12 -2
-15 -10 -3 -9 -11 -16 -17 -16 -5 0 -29 -16 -53 -35 -23 -19 -47 -35 -52 -35
-6 0 -12 -3 -14 -7 -8 -18 -83 -62 -117 -69 -8 -1 -26 -6 -40 -10 -14 -4 -28
-8 -31 -9 -3 -1 -21 -5 -40 -9 -19 -5 -39 -11 -45 -14 -5 -4 -19 -8 -30 -10
-11 -1 -51 -12 -90 -24 -38 -12 -78 -23 -87 -25 -9 -1 -56 -14 -105 -29 -48
-14 -97 -28 -108 -30 -11 -3 -24 -6 -30 -8 -5 -2 -27 -6 -47 -11 -21 -4 -38
-11 -38 -16 0 -5 -7 -6 -15 -3 -8 3 -20 2 -27 -2 -7 -5 -15 -9 -18 -10 -3 0
-12 -4 -20 -7 -8 -4 -78 -29 -155 -56 -77 -27 -178 -64 -225 -80 -47 -17 -87
-32 -90 -32 -3 -1 -16 -6 -30 -11 -14 -5 -72 -26 -130 -47 l-105 -36 -175 2
c-96 2 -181 3 -187 3 -7 0 -19 0 -25 0 -7 0 -58 2 -113 4 -55 2 -215 7 -355
10 -140 4 -256 9 -258 11 -3 2 -13 0 -23 -6 -12 -6 -19 -6 -19 0 0 6 -11 6
-29 1 -16 -4 -32 -6 -34 -3 -8 7 -114 12 -362 18 -245 6 -285 6 -296 -1 -4 -2
-10 -1 -12 4 -5 6 -40 7 -104 3 -14 -1 61 -148 96 -187 5 -7 8 -14 5 -17 -2
-2 2 -10 11 -17 8 -7 15 -19 15 -26 0 -8 5 -14 10 -14 6 0 10 -4 10 -10 0 -5
36 -70 80 -145 44 -75 80 -140 80 -145 0 -6 5 -10 10 -10 6 0 10 -11 10 -24
l0 -24 -128 -1 c-165 -1 -222 -4 -222 -11 0 -6 31 -53 40 -60 4 -3 18 -22 32
-42 13 -21 28 -35 31 -31 4 3 7 1 7 -6 0 -10 48 -79 70 -101 3 -3 23 -27 45
-54 22 -28 59 -70 82 -94 24 -24 43 -47 43 -50 0 -4 28 -33 63 -66 145 -136
187 -178 187 -187 0 -5 7 -9 16 -9 8 0 12 -4 9 -10 -3 -5 -2 -10 4 -10 5 0 43
-33 84 -72 40 -40 96 -94 123 -119 27 -26 61 -61 77 -79 l27 -33 -22 -36 c-12
-20 -25 -38 -28 -41 -4 -3 -21 -26 -38 -52 -18 -25 -38 -52 -44 -60 -7 -7 -26
-33 -42 -58 -16 -25 -35 -49 -43 -53 -7 -4 -13 -13 -13 -20 0 -7 -13 -26 -28
-44 -15 -17 -56 -73 -92 -123 -78 -110 -115 -161 -199 -275 -34 -47 -61 -88
-58 -91 2 -3 71 -7 153 -10 82 -2 171 -6 198 -8 49 -3 73 -21 55 -42 -5 -6
-11 -35 -13 -65 -3 -30 -7 -70 -10 -89 -3 -19 -8 -60 -11 -90 -3 -30 -8 -68
-10 -85 -2 -16 -7 -51 -10 -77 -10 -96 -15 -134 -19 -163 -3 -16 -7 -61 -11
-99 -4 -38 -9 -79 -11 -90 -2 -12 -6 -48 -9 -81 -5 -61 -12 -113 -20 -153 -7
-36 -16 -44 313 275 75 73 139 130 143 127 4 -2 11 -28 15 -57 8 -52 9 -60 14
-74 1 -5 2 -12 1 -16 -1 -5 5 -45 13 -90 8 -45 18 -98 21 -117 3 -19 8 -44 10
-55 2 -11 6 -37 10 -59 4 -21 9 -48 11 -60 3 -11 7 -34 9 -51 4 -38 12 -85 27
-155 6 -30 12 -73 13 -95 2 -22 6 -47 9 -55 8 -22 18 -76 31 -175 4 -28 8 -54
21 -115 8 -38 11 -62 13 -93 1 -19 5 -26 13 -21 8 5 9 2 5 -9 -3 -10 -5 -17
-3 -17 8 0 396 395 396 402 0 4 6 8 13 8 6 1 26 19 42 40 17 21 36 39 43 40 6
0 12 4 12 10 0 5 12 17 26 26 39 26 39 26 145 -271 17 -49 38 -104 45 -120 21
-51 36 -89 39 -108 2 -10 9 -33 16 -51 11 -32 13 -33 29 -17 16 15 60 75 124
171 17 25 36 51 43 58 7 8 18 23 24 35 7 11 16 26 21 31 4 6 30 40 56 75 61
83 76 89 68 27 -4 -25 -11 -58 -16 -72 -6 -14 -8 -30 -4 -35 3 -5 0 -9 -6 -9
-7 0 -10 -6 -7 -12 2 -7 1 -22 -4 -34 -4 -11 -10 -36 -13 -55 -3 -19 -15 -77
-26 -129 -12 -52 -23 -104 -25 -115 -2 -11 -8 -42 -14 -70 -18 -85 -21 -99
-28 -135 -4 -19 -6 -38 -5 -42 1 -5 -1 -8 -6 -8 -4 0 -7 -10 -8 -22 0 -13 -13
-81 -28 -153 -16 -71 -30 -137 -31 -145 -2 -8 -4 -15 -5 -15 -1 0 -4 -13 -6
-30 -8 -45 -12 -70 -14 -70 -1 0 -3 -10 -6 -22 -2 -12 -20 -97 -40 -190 -20
-92 -38 -179 -41 -193 -5 -27 -32 -154 -39 -185 -3 -11 -7 -29 -8 -40 -2 -11
-11 -56 -21 -100 -9 -44 -19 -89 -21 -100 -2 -11 -7 -33 -10 -49 -2 -16 -6
-32 -8 -35 -2 -3 -7 -23 -10 -43 -3 -20 -15 -78 -26 -128 -11 -50 -23 -108
-26 -128 -3 -20 -8 -40 -10 -43 -2 -3 -5 -19 -8 -35 -3 -16 -24 -114 -46 -219
-23 -104 -54 -255 -71 -335 -17 -80 -32 -154 -35 -165 -3 -11 -6 -29 -8 -40
-2 -11 -6 -30 -10 -41 -4 -12 -8 -35 -10 -50 -11 -84 -23 -94 -67 -55 -28 25
-42 36 -74 57 -17 10 -37 26 -46 36 -9 10 -19 18 -23 18 -5 0 -68 45 -126 91
-14 11 -37 28 -52 37 -16 9 -28 20 -28 24 0 4 -5 8 -10 8 -6 0 -40 22 -75 50
-35 27 -68 50 -73 50 -4 0 -14 9 -22 20 -8 11 -20 20 -27 20 -7 0 -13 4 -13 8
0 10 -56 43 -64 37 -3 -3 -4 -2 -1 1 4 7 -28 34 -100 84 -19 14 -46 33 -58 43
-12 10 -34 26 -49 35 -16 9 -28 20 -28 24 0 4 -7 8 -15 8 -8 0 -15 4 -15 8 0
4 -15 16 -32 27 -18 10 -37 24 -41 32 -4 7 -14 13 -22 13 -7 0 -15 3 -17 8 -5
12 -116 92 -128 92 -6 0 -8 5 -5 10 3 5 0 10 -8 10 -8 0 -25 9 -38 21 -13 11
-34 29 -47 40 -12 10 -27 19 -32 19 -6 0 -10 5 -10 10 0 6 -7 10 -15 10 -8 0
-15 6 -16 13 -2 26 3 110 7 131 3 11 7 35 9 51 3 17 7 41 10 55 3 14 8 41 11
60 8 45 10 52 17 70 4 8 8 31 11 50 2 19 6 42 9 50 3 8 8 29 11 45 3 17 9 47
15 68 5 20 7 37 5 37 -3 0 0 8 5 18 5 9 12 33 15 52 3 19 24 105 46 190 23 85
43 166 46 180 9 39 10 42 24 90 7 25 14 52 15 60 1 8 10 42 20 75 10 33 20 65
21 70 2 6 6 21 9 35 4 14 8 33 8 43 1 9 4 17 8 17 4 0 10 21 14 48 4 26 10 52
15 57 8 10 23 70 20 81 -1 4 3 10 9 14 7 3 13 21 14 38 1 18 6 32 11 32 5 0 6
3 3 7 -4 3 -1 13 6 21 15 19 13 205 -2 210 -6 2 -9 7 -7 11 3 3 -2 36 -9 71
-14 67 -22 113 -30 165 -3 17 -7 41 -11 55 -3 14 -7 39 -10 55 -12 74 -25 96
-67 115 -49 22 -76 32 -98 36 -9 2 -29 9 -45 15 -16 7 -32 12 -36 11 -5 -1 -8
2 -8 7 0 7 -43 27 -80 36 -3 1 -12 4 -20 7 -22 9 -44 15 -50 15 -3 0 -23 10
-45 22 -22 11 -44 21 -49 21 -12 0 -121 -116 -217 -230 -60 -72 -107 -125
-129 -146 -14 -13 -22 -24 -18 -24 3 0 -9 -16 -28 -35 -19 -20 -34 -42 -34
-49 0 -8 -7 -17 -16 -20 -9 -4 -14 -9 -11 -12 3 -3 -3 -14 -14 -25 -18 -18
-28 -66 -11 -55 4 2 6 -28 5 -67 -6 -145 -5 -215 1 -226 4 -6 4 -11 -1 -11 -4
0 -9 -100 -10 -223 -2 -122 -5 -375 -8 -562 -15 -1023 -15 -1131 -2 -1147 6
-9 29 -26 50 -37 59 -33 109 -62 153 -87 22 -13 44 -22 47 -19 4 3 5 2 2 -2
-8 -10 75 -54 88 -46 6 3 7 1 3 -5 -4 -7 -2 -12 4 -12 6 0 27 -11 47 -25 20
-13 40 -22 45 -19 4 3 8 1 8 -4 0 -13 81 -53 92 -46 5 3 7 1 6 -4 -2 -6 1 -10
6 -10 5 0 12 -4 15 -9 3 -4 31 -21 61 -37 30 -16 57 -32 60 -35 3 -3 32 -19
65 -36 33 -16 62 -32 65 -35 6 -6 62 -37 148 -81 34 -18 62 -36 62 -41 0 -4 7
-8 16 -8 9 0 27 -9 41 -20 14 -11 31 -20 39 -20 7 0 14 -5 16 -10 2 -6 13 -12
25 -13 12 0 20 -4 17 -8 -2 -4 6 -11 18 -15 13 -4 41 -18 63 -32 22 -14 46
-25 52 -25 7 0 13 -4 13 -7 0 -4 30 -23 68 -41 37 -19 73 -40 80 -46 7 -7 24
-16 38 -19 13 -3 24 -10 24 -14 0 -4 8 -10 18 -13 9 -3 58 -29 107 -57 50 -28
98 -54 108 -57 9 -3 17 -10 17 -16 0 -6 3 -7 7 -4 3 4 12 2 19 -4 8 -6 37 -24
66 -39 29 -15 52 -31 52 -36 -1 -5 -4 -27 -7 -49 -3 -22 -8 -47 -11 -55 -3 -8
-8 -28 -11 -45 -9 -47 -15 -73 -36 -170 -10 -49 -19 -93 -19 -97 0 -4 1134 -8
2520 -8 2393 0 2520 1 2520 18 0 9 -21 100 -45 202 -25 102 -52 214 -61 250
-8 36 -19 83 -25 105 -5 22 -12 49 -14 60 -2 11 -24 103 -49 205 -25 102 -48
200 -51 219 -3 19 -8 37 -10 41 -2 3 -6 17 -9 31 -3 13 -15 62 -26 109 -12 47
-22 94 -24 105 -1 12 -5 25 -8 30 -3 6 -9 30 -13 55 -4 25 -10 50 -13 55 -4 6
-8 19 -10 30 -1 11 -16 76 -33 145 -17 69 -32 132 -34 141 -5 26 -44 189 -50
209 -4 15 -16 68 -20 88 -2 13 -7 32 -10 42 -3 10 -7 27 -9 37 -2 10 -9 38
-16 63 -7 25 -14 56 -17 70 -2 14 -13 59 -24 101 -11 42 -22 86 -24 98 -3 11
-7 31 -10 42 -2 12 -13 58 -24 103 -21 86 -61 251 -66 276 -4 15 -43 183 -50
210 -16 61 -45 183 -49 202 -13 56 -36 149 -56 218 -21 77 -22 104 -5 106 11
1 27 7 93 35 23 10 42 16 42 13 0 -3 10 2 22 10 12 9 30 16 40 16 9 0 23 6 30
13 7 7 15 14 18 14 14 0 87 27 98 36 6 5 12 6 12 2 0 -4 6 -2 13 4 8 6 17 8
20 4 4 -3 7 -1 7 5 0 7 3 11 8 10 4 0 16 2 27 6 40 15 61 24 85 35 14 6 64 26
113 44 48 18 84 36 81 40 -3 3 3 3 15 0 13 -3 21 -1 21 6 0 7 4 10 9 6 5 -3
12 -1 16 5 4 6 10 8 15 5 5 -3 16 3 26 12 10 10 18 16 18 14 1 -5 75 18 91 28
6 3 18 7 28 8 11 2 28 10 40 18 12 8 29 15 39 15 10 0 18 4 18 8 0 5 6 9 13 9
21 1 42 8 48 16 3 5 13 9 21 11 9 1 24 8 34 16 13 11 16 12 10 1 -6 -9 -1 -8
17 3 13 9 33 18 43 21 11 2 44 15 75 29 31 13 60 22 63 19 3 -4 6 -1 6 6 0 7
4 10 9 6 5 -3 15 0 23 7 7 7 21 14 31 16 10 2 39 13 65 24 26 12 49 22 52 23
22 5 63 21 107 41 28 13 56 24 60 24 5 0 28 9 51 20 22 11 48 20 57 20 8 0 15
4 15 10 0 5 3 9 8 8 4 -2 27 6 52 16 25 11 50 20 56 22 6 1 29 10 50 19 22 10
53 23 69 30 114 48 115 48 115 75 0 15 -3 29 -6 33 -4 3 -8 26 -10 49 -1 24
-5 57 -9 73 -5 27 -15 101 -17 133 -1 6 -4 12 -7 12 -3 0 -6 17 -6 38 0 20 -3
42 -8 48 -4 7 -7 16 -5 20 2 9 -8 89 -19 149 -3 17 -7 39 -8 50 -15 92 -17
112 -17 128 1 9 -2 17 -6 17 -4 0 -8 15 -8 33 -1 17 -6 55 -10 82 -4 28 -8 60
-8 73 -1 12 -3 22 -6 22 -5 0 -9 33 -13 98 -1 17 -6 32 -11 32 -5 0 -6 3 -3 6
3 4 2 15 -4 25 -7 13 -6 19 1 19 7 0 8 5 3 13 -4 6 -9 23 -10 37 -1 14 -4 36
-8 50 -3 14 -8 41 -10 60 -3 19 -9 62 -14 94 -5 33 -10 62 -9 65 0 3 -1 8 -2
11 -2 5 -4 17 -14 85 -3 22 -8 51 -11 65 -4 14 -7 36 -9 50 -2 14 -6 41 -9 60
-10 52 -17 100 -24 147 -4 28 -9 40 -17 36 -7 -4 -6 -1 1 8 10 12 9 20 -2 36
-8 11 -12 23 -9 25 2 3 -2 11 -10 17 -12 10 -18 9 -33 -9 -10 -11 -17 -24 -16
-28 0 -4 -3 -15 -9 -25 -5 -10 -12 -28 -14 -40 -8 -35 -12 -52 -15 -57 -1 -3
-3 -9 -4 -15 -1 -5 -7 -23 -14 -39 -6 -16 -13 -36 -15 -45 -2 -9 -6 -23 -9
-31 -21 -51 -55 -160 -50 -160 3 0 0 -6 -6 -14 -7 -8 -14 -23 -16 -34 -2 -12
-20 -62 -41 -113 -21 -51 -37 -98 -37 -106 0 -7 -4 -13 -8 -13 -3 0 -9 -10
-13 -22 -3 -13 -6 -24 -6 -25 -1 -2 -12 -27 -25 -58 -14 -30 -25 -58 -26 -63
-1 -4 -6 -18 -11 -32 -6 -14 -11 -29 -12 -35 -1 -5 -11 -35 -21 -65 -11 -30
-20 -57 -20 -60 0 -3 -7 -16 -15 -30 -8 -14 -15 -29 -17 -35 -1 -5 -18 -57
-36 -115 -19 -58 -45 -139 -58 -180 -23 -73 -25 -75 -59 -78 -19 -1 -42 -5
-50 -9 -8 -3 -26 -7 -40 -8 -49 -4 -135 -17 -141 -21 -4 -2 -26 -6 -50 -8 -24
-3 -62 -8 -84 -12 -22 -4 -51 -8 -65 -9 -14 -2 -25 -4 -25 -5 0 -1 -26 -5
-115 -15 -58 -6 -82 -10 -140 -19 -19 -3 -53 -8 -75 -12 -22 -3 -58 -10 -80
-15 -22 -5 -58 -11 -80 -14 -53 -5 -119 -16 -126 -21 -3 -2 -33 -6 -65 -10
-32 -3 -63 -9 -68 -12 -6 -3 -19 -6 -30 -7 -12 -1 -41 -5 -66 -10 -25 -4 -58
-9 -75 -10 -16 -2 -30 -4 -30 -5 0 -1 -13 -3 -30 -5 -16 -2 -45 -6 -62 -8 -18
-2 -33 0 -33 5 0 5 -4 6 -10 3 -5 -3 -10 -4 -10 0 0 4 -18 87 -45 205 -19 85
-35 141 -47 170 -16 39 -13 70 6 70 8 0 49 -16 92 -36 82 -37 105 -46 214 -83
36 -12 74 -26 85 -31 16 -7 137 -50 275 -96 8 -3 15 -4 15 -3 0 1 10 -3 22
-10 20 -10 23 -9 20 6 -1 10 -6 24 -10 31 -5 6 -6 12 -3 12 3 0 -1 18 -9 40
-8 22 -14 41 -14 43 1 5 -15 67 -32 126 -10 34 -21 73 -23 85 -3 11 -12 46
-21 76 -9 30 -17 64 -19 75 -2 11 -10 40 -17 64 -12 40 -11 45 6 57 10 8 26
12 34 10 9 -3 34 -8 56 -11 22 -4 49 -9 60 -11 11 -2 36 -6 55 -8 19 -3 49 -9
65 -13 17 -3 41 -7 55 -8 14 -1 32 -5 40 -8 8 -3 35 -8 60 -11 65 -9 155 -24
155 -26 0 -2 27 -7 77 -14 24 -3 59 -9 78 -12 34 -6 34 -6 15 11 -11 9 -14 14
-7 10 6 -3 12 -1 12 4 0 6 -4 11 -10 11 -5 0 -10 4 -10 9 0 10 -63 147 -155
336 -35 72 -65 137 -67 145 -2 8 -6 17 -9 20 -9 7 -109 220 -109 231 0 5 -4 9
-10 9 -5 0 -10 5 -10 11 0 6 -21 54 -47 107 -26 54 -48 99 -48 102 -1 3 -22
47 -48 99 -30 61 -43 97 -36 101 6 4 29 3 52 -2 23 -5 58 -10 77 -13 19 -2 46
-6 60 -8 29 -5 63 -11 175 -27 44 -7 87 -14 97 -15 9 -2 38 -7 65 -11 26 -3
56 -8 66 -10 25 -4 10 17 -83 116 -19 21 -64 70 -100 110 -36 40 -76 85 -90
100 -37 40 -162 179 -183 204 -51 59 -167 184 -200 216 -43 42 -43 43 48 111
33 24 62 46 65 49 3 3 21 17 40 30 19 13 37 27 40 30 3 3 26 22 53 42 l47 36
-32 12 c-18 7 -38 14 -43 15 -6 1 -53 17 -105 35 -52 18 -99 33 -105 35 -5 1
-23 7 -38 13 -15 7 -40 15 -55 18 -15 4 -33 11 -39 17 -7 5 -13 7 -13 4 0 -4
-20 2 -45 13 -25 11 -46 19 -48 18 -3 -2 -107 31 -132 42 -23 10 -143 50 -165
56 -13 3 -43 13 -120 40 -8 3 -16 4 -16 2 -1 -2 -11 6 -23 16 -16 14 -20 27
-16 50 2 17 6 49 9 71 3 22 7 47 10 55 3 8 8 26 10 40 3 14 8 36 11 50 3 14 7
34 9 45 19 129 22 143 25 148 3 3 9 37 15 82 2 22 8 54 11 70 4 17 9 39 10 50
2 11 4 20 5 20 2 0 4 9 6 20 1 11 5 31 9 45 5 24 17 142 18 188 1 12 4 22 7
22 5 0 9 74 13 255 1 39 7 73 12 77 6 5 6 8 -2 8 -11 0 -11 20 2 60 10 31 -19
29 -70 -6 -28 -19 -56 -34 -62 -34 -7 0 -13 -3 -13 -7 0 -5 -21 -21 -45 -38
-25 -16 -45 -34 -45 -38 0 -5 -4 -6 -9 -2 -6 3 -13 -1 -18 -8 -4 -8 -18 -18
-30 -21 -18 -6 -23 -3 -24 11 0 10 -2 27 -5 38 -4 22 -16 175 -18 242 0 24 -3
43 -6 43 -4 0 -6 10 -6 23 -1 40 -14 211 -20 257 -4 25 -7 51 -7 58 -1 16 -6
15 -45 -8z"/>
</g>
</svg>
